<svg height="512" viewBox="0 0 60 60" width="512" xmlns="http://www.w3.org/2000/svg"><g id="Page-1" fill="none" fill-rule="evenodd"><g id="046---Any-Solvent" fill-rule="nonzero"><g id="Color" transform="translate(1 1)"><circle id="Oval" cx="29" cy="29" fill="#e91e63" r="29"/><path id="Shape" d="m29 0c-.5 0-1 0-1.5 0 16.0162576.00000024 28.9999996 12.9837424 28.9999996 29s-12.983742 28.9999998-28.9999996 29h1.5c16.0162576-.0000002 28.9999996-12.9837424 28.9999996-29s-12.983742-28.99999976-28.9999996-29z" fill="#ad1457"/><circle id="Oval" cx="29" cy="29" fill="#00bcd4" r="25"/><path id="Shape" d="m29 4c-.5 0-1 0-1.5 0 13.1671239.83401357 23.4196519 11.7564891 23.4196519 24.95s-10.252528 24.1159864-23.4196519 24.95h1.5c13.1671239-.8340136 23.4196519-11.7564891 23.4196519-24.95s-10.252528-24.11598643-23.4196519-24.95z" fill="#00838f"/><path id="Shape" d="m42.76 40.83-11-26c-.4712648-1.10626-1.5575435-1.8242449-2.76-1.8242449s-2.2887352.7179849-2.76 1.8242449l-11 26c-.4680221.9949433-.354262 2.1662008.296477 3.0524827.6507389.886282 1.7341794 1.3455665 2.8236176 1.1969684 1.0894381-.1485982 2.0102975-.881267 2.3999054-1.9094511l2.24-5.17h12.1l2.19 5.17c.6860112 1.4583545 2.4017011 2.1141124 3.8855306 1.4850977 1.4838294-.6290146 2.2055437-2.3180199 1.6344694-3.8250977zm-17.27-8.83 3.51-8.3 3.51 8.3z" fill="#ffeb3a"/><g fill="#fdd834"><path id="Shape" d="m22.49 32h3l2.01-4.75-1.5-3.55z"/><path id="Shape" d="m17.76 43.17c-.2506673.5975761-.6942604 1.0939779-1.26 1.41.1044258.0696983.2148639.1299373.33.18 1.5243167.6448295 3.2828848-.0666522 3.93-1.59l2.24-5.17h-3z"/><path id="Shape" d="m42.76 40.83-11-26c-.3369884-.7895776-.9960936-1.396956-1.8105226-1.6684323-.8144289-.2714764-1.7061401-.1810367-2.4494774.2484323.5626395.3244609 1.004786.822753 1.26 1.42l11 26c.5845964 1.3942948.0403056 3.0057386-1.27 3.76.459649.264369.9797654.4055927 1.51.41.4021439-.0007732.8000277-.0823904 1.17-.24 1.5233478-.6471152 2.2348295-2.4056833 1.59-3.93z"/></g></g><g id="Outline" fill="#000"><path id="Shape" d="m30 0c-16.5685425 0-30 13.4314575-30 30s13.4314575 30 30 30 30-13.4314575 30-30c0-7.9564947-3.1607052-15.5871121-8.7867966-21.21320344-5.6260913-5.62609135-13.2567087-8.78679656-21.2132034-8.78679656zm0 58c-15.463973 0-28-12.536027-28-28s12.536027-28 28-28 28 12.536027 28 28-12.536027 28-28 28z"/><path id="Shape" d="m30 4c-14.3594035 0-26 11.6405965-26 26s11.6405965 26 26 26 26-11.6405965 26-26c0-6.8956287-2.7392778-13.5088305-7.6152237-18.3847763-4.8759458-4.87594585-11.4891476-7.6152237-18.3847763-7.6152237zm0 50c-13.254834 0-24-10.745166-24-24s10.745166-24 24-24 24 10.745166 24 24c0 6.3651958-2.5285642 12.4696897-7.0294373 16.9705627-4.500873 4.5008731-10.6053669 7.0294373-16.9705627 7.0294373z"/><path id="Shape" d="m33.68 15.44c-.628353-1.4750133-2.0767246-2.4323266-3.68-2.4323266s-3.051647.9573133-3.68 2.4323266l-11 26c-.8597727 2.0324223.0888696 4.3771797 2.12 5.24.492105.2139388 1.0234102.3229245 1.56.32.5137998-.0013555 1.0227204-.0997468 1.5-.29.9830535-.3991787 1.7672383-1.172572 2.18-2.15l1.93-4.56h10.78l1.93 4.56c.5194772 1.3709121 1.7472898 2.3478039 3.1998739 2.5459348 1.4525842.1981308 2.8971715-.4142486 3.7648235-1.5959578.8676519-1.1817092 1.0193321-2.743386.3953026-4.069977zm9.17 28.31c-.1984169.490583-.5831751.8825331-1.07 1.09-1.0162112.4298863-2.1885898-.0444348-2.62-1.06l-2.16-5.17c-.1564992-.3695049-.5187198-.609673-.92-.61h-12.08c-.4012802.000327-.7635008.2404951-.92.61l-2.19 5.17c-.4573408.9722364-1.6011341 1.4094083-2.5903537.9900652-.9892196-.4193432-1.4703625-1.5453467-1.0896463-2.5500652l11-26c.3141765-.7375067 1.0383623-1.2161633 1.84-1.2161633s1.5258235.4786566 1.84 1.2161633l11 26c.1900544.4951308.1756663 1.0454762-.04 1.53z"/><path id="Shape" d="m30.92 24.31c-.1570883-.3687533-.5191812-.6080816-.92-.6080816s-.7629117.2393283-.92.6080816l-3.51 8.3c-.1307452.3086973-.0981074.6623717.0869231.9419286s.4978333.4477983.8330769.4480714h7c.3352436-.0002731.6480464-.1685145.8330769-.4480714s.2176683-.6332313.0869231-.9419286zm-2.92 7.69 2-4.73 2 4.73z"/></g></g></g></svg>