<svg height="512" viewBox="0 0 64 64" width="512" xmlns="http://www.w3.org/2000/svg"><g id="Filled_outline" data-name="Filled outline"><path d="m3 16h26v8h-26z" fill="#2d75bb"/><path d="m3 40h26v8h-26z" fill="#2d75bb"/><path d="m5 24h22v4h-22z" fill="#195c85"/><path d="m3 28h26v8h-26z" fill="#2d75bb"/><path d="m5 36h22v4h-22z" fill="#195c85"/><g fill="#fcf05a"><path d="m6 19h2v2h-2z"/><path d="m10 19h2v2h-2z"/><path d="m14 19h2v2h-2z"/><path d="m6 31h2v2h-2z"/><path d="m10 31h2v2h-2z"/><path d="m14 31h2v2h-2z"/><path d="m6 43h2v2h-2z"/><path d="m10 43h2v2h-2z"/><path d="m14 43h2v2h-2z"/></g><path d="m39 3h18v10h-18z" fill="#50b4f8" transform="matrix(-1 0 0 -1 96 16)"/><path d="m45 13h6v4h-6z" fill="#5a6470" transform="matrix(-1 0 0 -1 96 30)"/><path d="m43 27h18v10h-18z" fill="#50b4f8" transform="matrix(-1 0 0 -1 104 64)"/><path d="m49 37h6v4h-6z" fill="#5a6470" transform="matrix(-1 0 0 -1 104 78)"/><path d="m39 47h18v10h-18z" fill="#50b4f8" transform="matrix(-1 0 0 -1 96 104)"/><path d="m45 57h6v4h-6z" fill="#5a6470" transform="matrix(-1 0 0 -1 96 118)"/><path d="m6 19h2v2h-2z"/><path d="m10 19h2v2h-2z"/><path d="m14 19h2v2h-2z"/><path d="m6 31h2v2h-2z"/><path d="m10 31h2v2h-2z"/><path d="m14 31h2v2h-2z"/><path d="m6 43h2v2h-2z"/><path d="m10 43h2v2h-2z"/><path d="m14 43h2v2h-2z"/><path d="m54 9v-3h-2v2h-2v2h3a1 1 0 0 0 1-1z"/><path d="m61 26h-18a1 1 0 0 0 -1 1v4h-6v-22h2v4a1 1 0 0 0 1 1h5v2h-2v2h12v-2h-2v-2h5a1 1 0 0 0 1-1v-10a1 1 0 0 0 -1-1h-18a1 1 0 0 0 -1 1v4h-3a1 1 0 0 0 -1 1v23h-4v-4h-2v-2h2v-10h-28v10h2v2h-2v10h2v2h-2v10h28v-10h-2v-2h2v-4h4v19a1 1 0 0 0 1 1h3v4a1 1 0 0 0 1 1h5v2h-2v2h12v-2h-2v-2h5a1 1 0 0 0 1-1v-10a1 1 0 0 0 -1-1h-18a1 1 0 0 0 -1 1v4h-2v-18h6v4a1 1 0 0 0 1 1h5v2h-2v2h12v-2h-2v-2h5a1 1 0 0 0 1-1v-10a1 1 0 0 0 -1-1zm-11-10h-4v-2h4zm-10-12h16v8h-16zm-36 13h24v6h-24zm22 8v2h-20v-2zm2 22h-24v-6h24zm-22-8v-2h20v2zm22-4h-24v-6h24zm22 25h-4v-2h4zm-10-12h16v8h-16zm14-8h-4v-2h4zm6-4h-16v-8h16z"/><path d="m58 33v-3h-2v2h-2v2h3a1 1 0 0 0 1-1z"/><path d="m54 53v-3h-2v2h-2v2h3a1 1 0 0 0 1-1z"/></g></svg>