<svg height="512" viewBox="0 0 60 60" width="512" xmlns="http://www.w3.org/2000/svg"><g id="Page-1" fill="none" fill-rule="evenodd"><g id="027---Web-Connections" fill-rule="nonzero"><circle id="Oval" cx="30" cy="30" fill="#e8edfc" r="29"/><path id="Shape" d="m30 1c-.5033333 0-1.0033333.01266667-1.5.038 15.4192225.79012792 27.5158989 13.5225465 27.5158989 28.962s-12.0966764 28.1718721-27.5158989 28.962c.4973333.0253333.9973333.038 1.5.038 16.0162576-.0000002 28.9999996-12.9837424 28.9999996-29s-12.983742-28.99999976-28.9999996-29z" fill="#cad9fc"/><circle id="Oval" cx="40" cy="18" fill="#a4c2f7" r="4"/><path id="Shape" d="m40 14c-.5146843.0021695-1.0240724.1040471-1.5.3 1.5110147.6085107 2.5007405 2.0740584 2.5007405 3.703s-.9897258 3.0944893-2.5007405 3.703c1.496414.6077595 3.211506.2559465 4.3478056-.8918556s1.4708211-2.8663504.8480212-4.3565675c-.6227999-1.490217-2.0807039-2.4596648-3.6958268-2.4575769z" fill="#7facfa"/><g fill="#a4c2f7"><circle id="Oval" cx="13" cy="23" r="4"/><circle id="Oval" cx="21" cy="38" r="4"/><circle id="Oval" cx="36" cy="47" r="4"/></g><path id="Shape" d="m1 30c0 16.0162577 12.9837423 29 29 29 .5033333 0 1.0033333-.0126667 1.5-.038-15.4192225-.7901279-27.51589893-13.5225465-27.51589893-28.962s12.09667643-28.17187208 27.51589893-28.962c-.4966667-.02533333-.9966667-.038-1.5-.038-16.0162577 0-29 12.9837423-29 29z" fill="#fff"/><path id="Shape" d="m1.154 21.832 1.925.544-.479 1.869c-.12.632-.2 1.272-.3 1.907l-.147.954-.05.965-.103 1.929h-2l.1-2.066.06-1.034.155-1.023c.109-.681.2-1.366.325-2.043z" fill="#fff"/><path id="Shape" d="m1.324 27.01c-.55228473.0027614-1.00223852-.4427153-1.00499994-.995-.00276143-.5522847.44271521-1.0022385.99499994-1.005h.01c.55228475 0 1 .4477153 1 1s-.44771525 1-1 1z" fill="#428dff"/><path id="Shape" d="m59.586 25.062c-.7304054-4.3840817-2.4311739-8.5495638-4.978-12.192-.0243697-.0394843-.0514339-.0772405-.081-.113-5.4207056-7.71736891-14.1568367-12.43420552-23.583-12.733h-.022c-.307-.01-.613-.024-.922-.024-6.527709.01749196-12.8724627 2.15861817-18.076 6.1-.835.637-1.628 1.329-2.4 2.046-.14587916.08179033-.26842591.19951784-.356.342-1.46489362 1.38982405-2.78222518 2.9273253-3.931 4.588-1.81070772 2.6887945-3.18907973 5.644618-4.085 8.76-.15022144.5315741.15892594 1.0842785.6905 1.2345.53157407.1502214 1.08427854-.1589259 1.2345-.6905.83602105-2.9088835 2.12225844-5.6689627 3.812-8.18.66820188-.9639529 1.39946648-1.8826271 2.189-2.75.14634572 2.5007325.51818866 4.983144 1.111 7.417-1.92691782 1.2915235-2.69537161 3.7499931-1.847 5.909-2.31180858 1.7818443-4.4306938 3.8008516-6.322 6.024-.007-.266-.02-.532-.02-.8 0-.5522847-.44771525-1-1-1s-1 .4477153-1 1c.00226607 1.1718.07305356 2.3424648.212 3.506 0 .021 0 .04.007.06 1.26424885 10.4230635 7.87389281 19.431769 17.437 23.766.024.011.046.023.071.032 2.9358883 1.3254385 6.0677467 2.1647211 9.273 2.485.986.1 1.986.15 3 .15 8.1669537.0021426 15.9795754-3.3354914 21.624-9.238.0545739-.0463956.1041741-.0983418.148-.155 6.4744349-6.8069907 9.3699608-16.2629181 7.817-25.528zm-14.64-7.6c-.0294803-.2820499-.0830084-.5610649-.16-.834 2.7331453-1.0469011 5.5748097-1.7848215 8.472-2.2 1.7469491 2.5977992 3.0437632 5.4713447 3.836 8.5-3.7245538-2.4706349-7.8280229-4.3156422-12.148-5.462zm-4.946 10.538c.0041261 4.8599282-.8821718 9.6794907-2.615 14.22-.4487841-.1391302-.9151933-.2132168-1.385-.22-1.6313415.0022053-3.1585994.8016819-4.09 2.141-2.2237439-1.217046-4.3288952-2.6392284-6.288-4.248.8263075-1.9865038.2689615-4.2794343-1.377-5.665 2.9591221-5.1807534 7.0314093-9.6400155 11.923-13.056.867518 1.0518576 2.1297057 1.700311 3.49 1.793.2211932 1.6693291.3354262 3.351093.342 5.035zm-13.335 29.794c-2.6250433-.3101183-5.1923154-.9936915-7.624-2.03-.025-.553-.041-1.127-.041-1.764.003392-3.7364455.5322375-7.4538484 1.571-11.043.144.012.282.043.429.043 1.3108496-.000973 2.5684546-.5187469 3.5-1.441 2.0579047 1.6757594 4.2674519 3.156156 6.6 4.422-.3811805 1.8090544.2807451 3.6794284 1.715 4.846-1.7695863 2.5555559-3.8337835 4.8939725-6.15 6.967zm-8.665-34.794c-.0070268-.5221789-.0968082-1.0399409-.266-1.534 5.115397-2.2941147 10.6597393-3.4755171 16.266-3.466.336 0 .668.019 1 .029.0085667.4626965.0822915.9218776.219 1.364-5.2260137 3.6078532-9.5730787 8.3455697-12.719 13.862-1.0488667-.3629753-2.193124-.3377839-3.225.071-1.4485141-1.8823112-2.7259274-3.8902964-3.817-6 1.5644842-.879072 2.5354499-2.5314706 2.542-4.326zm3 12c1.6568542 0 3 1.3431458 3 3s-1.3431458 3-3 3-3-1.3431458-3-3 1.3431458-3 3-3zm12 12c0-1.6568542 1.3431458-3 3-3s3 1.3431458 3 3c-.0038323.3555234-.0715774.7074593-.2 1.039v.008c-.5055185 1.358418-1.9114971 2.1596456-3.3378735 1.9021601-1.4263763-.2574856-2.4634729-1.4997304-2.4621265-2.9491601zm7-26c-1.6568542 0-3-1.3431458-3-3s1.3431458-3 3-3 3 1.3431458 3 3-1.3431458 3-3 3zm11.928-8.381c-2.7616513.4669685-5.4686013 1.2138173-8.079 2.229-.9397397-1.1635663-2.3533515-1.8422763-3.849-1.848-.2509215.0059842-.5010027.0313935-.748.076-1.4825757-3.92241465-3.551064-7.59747944-6.135-10.9 7.4113664.83535828 14.1827031 4.59449228 18.811 10.443zm-40.913-3.137c.685-.626 1.385-1.231 2.117-1.792 4.8562785-3.67678135 10.7768668-5.67394448 16.868-5.69.132 0 .262.008.394.01 2.9910569 3.4834912 5.3532763 7.4607905 6.981 11.754-.8762609.5380593-1.5657805 1.3326653-1.975 2.276-.466-.017-.932-.04-1.4-.04-5.9525732-.0101323-11.8379147 1.258125-17.258 3.719-1.149732-1.350461-2.9408852-1.9720065-4.68-1.624-.6612493-2.8243699-1.0123271-5.7124632-1.047-8.613zm1.985 10.518c1.6568542 0 3 1.3431458 3 3s-1.3431458 3-3 3-3-1.3431458-3-3 1.3431458-3 3-3zm-10.749 13.691c2.07296139-2.6995921 4.48172345-5.1238122 7.168-7.214.9376419.9724248 2.2301553 1.522131 3.581 1.523.1755135-.0079479.3504498-.0256418.524-.053 1.1497484 2.2635714 2.5026349 4.4180815 4.042 6.437-1.169704 1.0950623-1.7378174 2.688069-1.5250112 4.2761755.2128063 1.5881065 1.1802727 2.9753455 2.5970112 3.7238245-1.0881795 3.7759953-1.6395858 7.6863343-1.638 11.616 0 .278.006.532.011.793-8.04834164-4.2271447-13.54952254-12.0920444-14.76-21.102zm27.139 24.293c1.9350128-1.8947925 3.6799922-3.9743659 5.21-6.209.4533897.1420564.9249306.2178397 1.4.225 1.7417416-.004686 3.3547888-.9179247 4.255-2.409 2.725597.7214377 5.5171016 1.165693 8.332 1.326-5.1140609 4.5660013-11.731202 7.0876137-18.587 7.083-.2 0-.406-.011-.61-.016zm21.167-9c-3.2495913-.0350927-6.4827814-.4662742-9.628-1.284.0405166-.2313158.0642452-.4652598.071-.7-.0057527-1.4891408-.6788054-2.8972667-1.834-3.837 1.8774845-4.8346591 2.8385232-9.9765893 2.834-15.163-.0014419-1.7721976-.1163436-3.542485-.344-5.3 1.4785916-.5243722 2.6243291-1.7138203 3.093-3.211 4.6635417 1.282039 9.0487494 3.4181875 12.933 6.3 1.2791426 8.4146397-1.343342 16.9538174-7.125 23.2z" fill="#428dff"/></g></g></svg>