<svg height="512" viewBox="0 0 64 64" width="512" xmlns="http://www.w3.org/2000/svg"><path d="m22 13v24a1.792 1.792 0 0 0 .1.62 2.007 2.007 0 0 0 1.9 1.38h32a2.007 2.007 0 0 0 1.93-1.48 1.766 1.766 0 0 0 .07-.52v-24z" fill="#ffb655"/><path d="m45.92 41.46h.01l6.76-2.46h3.31a2.007 2.007 0 0 0 1.93-1.48 3 3 0 0 1 .52 5.77l-20.47 7.45a11.963 11.963 0 0 1 -6.19.54l-1.79-.31a9.969 9.969 0 0 0 -7.47 1.66l-.7.49-7.46-10.65 3.96-2.77a20.066 20.066 0 0 1 3.77-2.08 2.007 2.007 0 0 0 1.9 1.38h21.12a3.166 3.166 0 0 1 .29.35 2.74 2.74 0 0 1 .48 1.2 2.32 2.32 0 0 1 .03.91z" fill="#ffc477"/><path d="m58 9v4h-14v-6h12a2.006 2.006 0 0 1 2 2z" fill="#ff9811"/><path d="m56.4 37.65a2.98 2.98 0 0 1 1.53-.13 2.007 2.007 0 0 1 -1.93 1.48h-3.31z" fill="#ffc477"/><path d="m52.69 39-6.76 2.46h-.01a2.32 2.32 0 0 0 -.03-.91 2.74 2.74 0 0 0 -.48-1.2 3.166 3.166 0 0 0 -.29-.35z" fill="#ffa733"/><path d="m45.12 39h-21.12a2.007 2.007 0 0 1 -1.9-1.38c.61-.25 1.23-.48 1.86-.67l.15-.04a19.975 19.975 0 0 1 9.31-.57l10.05 1.77a2.972 2.972 0 0 1 1.65.89z" fill="#ffc477"/><path d="m36 7v6h-14v-4a2.006 2.006 0 0 1 2-2z" fill="#ff9811"/><path d="m21.83 53.12 1.15 1.64-9.83 6.88-10.33-14.75 9.83-6.88 1.72 2.46z" fill="#3d9ae2"/><path d="m44 13v6l-4-4-4 4v-6-6h8z" fill="#e6e7e8"/><path d="m61.18 39.1a3.969 3.969 0 0 0 -2.18-2.29v-27.81a3.009 3.009 0 0 0 -3-3h-32a3.009 3.009 0 0 0 -3 3v28.03a20.264 20.264 0 0 0 -3.24 1.85l-3.14 2.2-1.15-1.64a1.007 1.007 0 0 0 -1.39-.25l-9.83 6.88a1.017 1.017 0 0 0 -.25 1.4l10.33 14.74a1 1 0 0 0 1.39.25l9.83-6.88a1.019 1.019 0 0 0 .25-1.4l-.57-.81a8.9 8.9 0 0 1 6.6-1.41l1.78.3a13 13 0 0 0 6.71-.58l20.47-7.45a4 4 0 0 0 2.39-5.13zm-16.18-31.1h11a1 1 0 0 1 1 1v3h-12zm-8 0h6v8.59l-2.29-2.3a1.008 1.008 0 0 0 -1.42 0l-2.29 2.3zm-14 1a1 1 0 0 1 1-1h11v4h-12zm0 5h12v5a.987.987 0 0 0 .62.92 1 1 0 0 0 1.09-.21l3.29-3.3 3.29 3.3a1.007 1.007 0 0 0 .71.29.838.838 0 0 0 .38-.08.987.987 0 0 0 .62-.92v-5h12v22.51a3.847 3.847 0 0 0 -.94.2l-3.54 1.29h-7.03a3.873 3.873 0 0 0 -1.85-.87l-10.05-1.77a20.993 20.993 0 0 0 -9.74.58l-.18.06c-.23.06-.45.15-.67.23zm-9.61 46.25-9.17-13.11 8.19-5.74 9.17 13.11zm46.01-19.43a2 2 0 0 1 -1.29 1.53l-20.47 7.45a10.988 10.988 0 0 1 -5.68.49l-1.79-.3a10.883 10.883 0 0 0 -8.09 1.74l-6.31-9.02 3.14-2.19a18.6 18.6 0 0 1 5.31-2.6l.18-.05a19.244 19.244 0 0 1 8.85-.55l10.04 1.77a2.048 2.048 0 0 1 1.3.83 2.012 2.012 0 0 1 .33.86 1.768 1.768 0 0 1 -.05.84 2.009 2.009 0 0 1 -2.29 1.42l-10.81-1.91-.34 1.96 10.8 1.91a3.419 3.419 0 0 0 .71.07 4.017 4.017 0 0 0 3.84-2.85l9.96-3.63a2 2 0 0 1 2.56 1.2 1.9 1.9 0 0 1 .1 1.03z"/></svg>