<svg height="512" viewBox="0 0 64 64" width="512" xmlns="http://www.w3.org/2000/svg"><path d="m11 11h42a0 0 0 0 1 0 0v44a6 6 0 0 1 -6 6h-36a0 0 0 0 1 0 0v-50a0 0 0 0 1 0 0z" fill="#3890ce"/><path d="m7 7h42v50h-42z" fill="#44add8"/><circle cx="47" cy="47" fill="#ffc119" r="14"/><g fill="#ea732d"><path d="m46 36h2v2h-2z"/><path d="m41 37.34h2v2h-2z" transform="matrix(.866 -.5 .5 .866 -13.542 26.131)"/><path d="m37.34 41h2v2h-2z" transform="matrix(.5 -.866 .866 .5 -17.202 54.208)"/><path d="m36 46h2v2h-2z"/><path d="m37.34 51h2v2h-2z" transform="matrix(.866 -.5 .5 .866 -20.861 26.131)"/><path d="m41 54.66h2v2h-2z" transform="matrix(.5 -.866 .866 .5 -27.202 64.21)"/><path d="m46 56h2v2h-2z"/><path d="m51 54.66h2v2h-2z" transform="matrix(.866 -.5 .5 .866 -20.861 33.45)"/><path d="m54.66 51h2v2h-2z" transform="matrix(.5 -.866 .866 .5 -17.201 74.21)"/><path d="m56 46h2v2h-2z"/><path d="m54.66 41h2v2h-2z" transform="matrix(.866 -.5 .5 .866 -13.542 33.451)"/><path d="m51 37.34h2v2h-2z" transform="matrix(.5 -.866 .866 .5 -7.201 64.209)"/><path d="m43.707 51.707-1.414-1.414 3.707-3.707v-5.586h2v6a1 1 0 0 1 -.293.707z"/><path d="m5 13a2 2 0 0 0 0 4h25v-4z"/></g><path d="m38 15-2-2h-5.999v4h5.999z" fill="#ffc119"/><path d="m32 21h12v6h-12z" fill="#ffc119"/><path d="m12 21h12v6h-12z" fill="#ffc119"/><path d="m12 33h12v6h-12z" fill="#ffc119"/><path d="m24 23h8v2h-8z" fill="#a1dbe8"/><path d="m17 27h2v6h-2z" fill="#a1dbe8"/><path d="m13 43h2v2h-2z" fill="#a1dbe8"/><path d="m17 43h12v2h-12z" fill="#a1dbe8"/><path d="m11 47h18v2h-18z" fill="#a1dbe8"/><path d="m11 51h16v2h-16z" fill="#a1dbe8"/><path d="m20 2h22v2h-22z" fill="#ccdce5"/><path d="m44 2h2v2h-2z" fill="#ccdce5"/></svg>