<svg id="Layer_1" enable-background="new 0 0 512 512" height="512" viewBox="0 0 512 512" width="512" xmlns="http://www.w3.org/2000/svg"><g><path d="m474.424 378.082c16.992-33.344 26.578-71.094 26.578-111.084 0-135.311-109.691-245.002-245.002-245.002s-245.002 109.691-245.002 245.002c0 39.99 9.586 77.74 26.577 111.084z" fill="#ff7186"/><path d="m475.115 376.692h-108.829v50.147c0 6.002-4.883 10.885-10.885 10.885h-198.802c-6.002 0-10.885-4.883-10.885-10.885v-50.147h-108.829c40.245 80.231 123.242 135.308 219.115 135.308s178.87-55.077 219.115-135.308z" fill="#3c58a0"/><path d="m305.6 506.967c1.995-6.125.544-16.094-27.075-19.686-41-5.333-22.525-27.249-22.525-27.249l-3.066-22.308h-96.335c-6.002 0-10.885-4.883-10.885-10.885v-50.147h-108.829c40.245 80.231 123.242 135.308 219.115 135.308 16.994 0 33.581-1.739 49.6-5.033z" fill="#2a428c"/><g><path d="m462.493 236.045h-412.986c-17.964 0-32.578-14.614-32.578-32.578v-163.978c0-17.964 14.614-32.578 32.578-32.578h412.985c17.964 0 32.578 14.614 32.578 32.578v163.978c.001 17.964-14.613 32.578-32.577 32.578z" fill="#e9efff"/></g><path d="m132.96 6.911h-83.453c-17.964 0-32.578 14.614-32.578 32.578v163.978c0 17.964 14.614 32.578 32.578 32.578h62.899c-.232-.493-.513-.965-.872-1.385-7.835-9.153-4.238-18.037-1.207-22.711 1.341-2.069 1.235-4.749-.271-6.701-9.489-12.301-2.169-22.634 1.894-26.887 1.276-1.335 1.785-3.199 1.414-5.008-1.981-9.673 4.133-16.72 8.655-20.467 2.117-1.755 2.69-4.743 1.404-7.174-2.491-4.71-2.565-9.618-2.565-9.618s0-68.146 0-82.269c0-8.17 4.574-13.387 8.429-16.333 2.441-1.865 3.009-5.252 1.344-7.834-5.774-8.957-1.875-16.404 1.198-20.242.597-.744.968-1.608 1.131-2.505z" fill="#d3dcfb"/><path d="m49.507 34.403c-2.804 0-5.086 2.282-5.086 5.086v163.978c0 2.804 2.282 5.086 5.086 5.086h412.985c2.804 0 5.086-2.282 5.086-5.086v-163.978c0-2.804-2.282-5.086-5.086-5.086z" fill="#73c3f9"/><path d="m49.507 34.403c-2.804 0-5.086 2.282-5.086 5.086v163.978c0 2.804 2.282 5.086 5.086 5.086h61.752c-.048-1.172-.451-2.33-1.203-3.305-9.489-12.301-2.169-22.634 1.894-26.887 1.276-1.335 1.785-3.199 1.414-5.008-1.981-9.673 4.133-16.72 8.655-20.467 2.117-1.755 2.69-4.743 1.404-7.174-2.491-4.71-2.565-9.618-2.565-9.618s0-68.146 0-82.269c0-8.17 4.574-13.387 8.429-16.333 1.054-.806 1.736-1.901 2.062-3.088h-81.842z" fill="#4fabf7"/><path d="m369.403 34.403 98.176 98.176v-36.551l-61.625-61.625z" fill="#9bd8f9"/><path d="m328.12 34.403h-66.185l174.15 174.15h26.408c2.804 0 5.086-2.282 5.086-5.086v-29.605z" fill="#9bd8f9"/><path d="m236.666 185.558c-3.024.715-6.141-.469-8.234-2.766-7.54-8.278-20.871-8.346-28.504-.192-2.08 2.222-5.493 2.605-8.091 1.02-4.409-2.691-9.472-4.015-14.566-3.879-3.166.085-5.981-2.064-6.637-5.162-2.826-13.352-17.5-20.821-29.902-15.781-2.992 1.216-6.431.183-8.146-2.554-5.097-8.138-15.001-12.11-24.295-9.765-3.195.806-6.509-.972-7.751-4.025-5.812-14.284-24.637-18.975-36.488-8.969-2.529 2.135-6.117 2.596-8.925.844-3.344-2.086-7.049-3.012-10.708-2.981v72.121c0 2.804 2.282 5.086 5.086 5.086h216.086c.005-.199.009-.398.004-.599-.383-15.289-14.826-25.733-28.929-22.398z" fill="#50dd89"/><path d="m111.95 178.361c1.276-1.335 1.785-3.199 1.414-5.008-1.981-9.673 4.133-16.72 8.655-20.467 1.373-1.137 2.084-2.794 2.073-4.48-4.76-2.502-10.38-3.295-15.8-1.928-3.195.806-6.509-.972-7.751-4.025-5.812-14.284-24.637-18.975-36.488-8.969-2.529 2.135-6.116 2.596-8.925.844-3.344-2.086-7.049-3.012-10.708-2.981v72.121c0 2.804 2.282 5.086 5.086 5.086h61.752c-.048-1.172-.451-2.33-1.203-3.305-9.487-12.302-2.167-22.635 1.895-26.888z" fill="#38c674"/><path d="m343.775 157.481c-1.196-12.264-15.307-14.783-15.651-27.165-.005-.195 0-.387.002-.581h-145.3c.002.193.008.385.002.581-.343 12.383-14.454 14.901-15.651 27.165-.719 7.371 3.754 13.342 7.761 17.804 4.007 4.463 8.46 10.496 7.681 17.853-.876 8.274-7.697 11.883-10.45 19.189-2.846 7.556-.526 17.553 3.752 23.425 4.278 5.873 10.04 8.596 15.602 11.152h62.355 3.195 62.355c5.561-2.555 11.323-5.279 15.602-11.152 4.279-5.872 6.598-15.869 3.752-23.425-2.752-7.306-9.574-10.915-10.45-19.189-.779-7.357 3.674-13.39 7.681-17.853 4.008-4.462 8.481-10.433 7.762-17.804z" fill="#2a428c"/><path d="m335.031 235.752c4.279-5.872 6.598-15.869 3.752-23.425-2.752-7.306-9.574-10.915-10.45-19.189-.277-2.616.116-5.062.907-7.332-21.686 3.986-22.214-17.454-22.214-17.454l-48.302-38.618h-75.897c.002.193.008.385.002.581-.343 12.383-14.454 14.901-15.651 27.165-.719 7.371 3.754 13.342 7.761 17.804 4.007 4.463 8.46 10.496 7.681 17.853-.876 8.274-7.698 11.883-10.45 19.189-2.846 7.556-.526 17.553 3.752 23.425 4.278 5.873 10.04 8.596 15.602 11.152h62.355 3.195 62.355c5.561-2.554 11.323-5.278 15.602-11.151z" fill="#1c2e7a"/><path d="m202.081 239.697c3.959 4.864 8.361 11.498 12.708 18.452 4.5 7.199 10.604 13.029 16.714 17.601h47.554c6.11-4.572 12.214-10.401 16.714-17.601 4.51-7.216 9.079-13.989 13.151-18.896 2-2.41 4.866-3.791 7.867-3.985-7.871-3.116-13.438-6.779-16.12-8.342-13.877-10.104-13.494-20.328-13.494-30.236-7.557 6.756-20.429 15.328-31.174 15.85-10.744-.522-23.616-9.094-31.173-15.85 0 9.908.383 20.132-13.495 30.236-2.743 1.598-8.495 5.393-16.649 8.553-.147.057-.297.11-.445.167 3.002.217 5.863 1.619 7.842 4.051z" fill="#fcad6d"/><path d="m211.332 226.926c-2.743 1.598-8.495 5.393-16.649 8.553-.147.057-.297.11-.445.167 3.004.217 5.864 1.62 7.844 4.052 3.959 4.864 8.361 11.498 12.708 18.452 1.581 2.529 3.367 4.879 5.274 7.074 1.088-.173 1.719-.218 1.719-.218 36.255-9.218 34.217-52.466 34.217-52.466-10.745-.522-23.616-9.094-31.173-15.85 0 9.908.382 20.132-13.495 30.236z" fill="#fd995b"/><path d="m145.714 286.635c0-6.002 4.883-10.885 10.885-10.885h77.876c-7.056-4.84-14.454-11.361-19.686-19.731-4.346-6.955-8.749-13.588-12.708-18.452-2.973-3.652-7.929-4.999-12.381-3.463-11.725 4.044-27.814 8.178-36.17 9.585-9.314 1.789-29.757 8.294-41.405 31.589-2.834 5.668-4.549 19.617-5.733 36.735 6.017 8.849 18.549 23.159 39.322 28.88z" fill="#ffdd40"/><path d="m202.081 237.567c-2.973-3.652-7.929-4.999-12.381-3.463-11.725 4.044-27.814 8.178-36.17 9.585-9.315 1.789-29.757 8.294-41.405 31.589-2.834 5.668-4.549 19.617-5.733 36.735 6.017 8.849 18.549 23.159 39.322 28.88v-54.258c0-6.002 4.883-10.885 10.885-10.885h41.825c10.419-9.835 23.358-10.745 23.358-10.745.002-.001.005-.001.007-.002-2.563-2.721-4.951-5.706-6.999-8.984-4.347-6.954-8.75-13.587-12.709-18.452z" fill="#ffb332"/><path d="m399.875 275.279c-11.648-23.295-32.091-29.8-41.405-31.589-8.128-1.369-24.984-5.629-37.174-9.933-4.429-1.564-9.375-.247-12.375 3.367-4.072 4.908-8.641 11.68-13.151 18.897-5.231 8.37-12.63 14.891-19.686 19.731h79.316c6.002 0 10.885 4.883 10.885 10.885v54.592c20.617-5.748 33.181-19.853 39.351-28.808-1.184-17.307-2.904-31.43-5.761-37.142z" fill="#ffdd40"/><path d="m145.714 339.497c-21.573-5.609-33.943-21.021-39.197-29.251-1.466 20.257-2.139 45.329-3.028 66.446h42.226v-37.195z" fill="#fd995b"/><path d="m366.286 376.692h42.225c-.889-21.117-1.563-46.189-3.028-66.446-5.254 8.23-17.625 23.642-39.197 29.251z" fill="#fd995b"/><path d="m384.954 361.17h-19.176v54.223h19.176c14.911 0 27.112-12.2 27.112-27.112-.001-14.91-12.201-27.111-27.112-27.111z" fill="#fcad6d"/><path d="m146.223 361.17h-19.176c-14.911 0-27.112 12.2-27.112 27.112 0 14.911 12.201 27.112 27.112 27.112h19.176z" fill="#fcad6d"/><path d="m194.971 99.196c.895-2.928 2.098-5.432 3.698-7.235 1.448-1.631 2.244-3.536 2.303-5.511 0 0 6.361-28.986 30.48-30.488 0 0 16.358-3.119 30.794 20.581 11.975 19.659 40.306 26.324 55.176 22.764 3.252-2.067 8.741-3.247 12.536-1.888.001-17.271.001-24.307.001-26.886 0-.937 0-1.287 0-1.325 0-37.416-29.97-69.21-73.67-69.21-43.442 0-73.671 31.689-73.671 69.21v28.21c3.724-1.332 9.08-.219 12.353 1.778z" fill="#2a428c"/><path d="m253.928 65.732c.074-1.204.113-1.893.113-1.893s24.149-17.472 8.162-33.459c-15.984-15.984 24.034-24.82 24.045-24.822-8.958-3.569-19.03-5.558-29.96-5.558-43.441 0-73.67 31.689-73.67 69.21v28.21c3.725-1.334 9.081-.221 12.353 1.776.895-2.928 2.098-5.432 3.698-7.235 1.448-1.631 2.244-3.536 2.303-5.511 0 0 6.361-28.986 30.48-30.488 0 0 10.728-2.041 22.476 9.77z" fill="#1c2e7a"/><path d="m328.313 95.633c-3.433-2.391-9.331-.153-11.733 1.916-.137.138-.261.27-.393.406 3.768 13.8 1.368 35.264.966 37.834-.02.088-.041.173-.061.261 7.093.484 12.293-3.746 12.293-9.977 0-2.046.183-4.086.542-6.101 1.169-6.563 6.986-18.349-1.614-24.339z" fill="#fcad6d"/><path d="m195.433 135.844c-1.466-8.517-2.691-25.626.241-36.919-.403-.448-.829-.904-1.301-1.376-2.402-2.069-8.3-4.307-11.733-1.916-8.601 5.99-2.784 17.775-1.614 24.339.359 2.015.542 4.055.542 6.101 0 6.682 5.977 11.068 13.859 9.801 0 0 .006-.017.007-.025z" fill="#fd995b"/><path d="m262.246 74.54c-14.437-23.7-30.794-20.581-30.794-20.581-24.118 1.502-30.48 30.488-30.48 30.488-.059 1.975-.855 3.88-2.303 5.511-7.98 8.992-6.232 35.265-4.371 46.081 4.123 18.199 10.096 34.068 17.749 47.166 7.77 13.298 19.537 23.64 34.029 29.909 6.491 2.807 13.933 2.807 20.423 0 14.492-6.27 26.259-16.612 34.028-29.909 7.653-13.095 13.625-28.964 17.757-47.199 1.427-9.071 2.309-27.252-1.24-38.827-14.805 3.685-42.761-2.878-54.798-22.639z" fill="#f9ba8f"/><path d="m254.487 183.206c-7.653-13.099-13.626-28.967-17.749-47.167-1.862-10.816-3.61-37.089 4.37-46.081 1.448-1.631 2.244-3.536 2.303-5.511 0 0 2.576-11.691 10.63-20.609-11.792-11.938-22.59-9.879-22.59-9.879-24.118 1.502-30.48 30.488-30.48 30.488-.059 1.975-.855 3.88-2.303 5.511-7.98 8.992-6.232 35.265-4.37 46.081 4.123 18.199 10.096 34.068 17.749 47.167 7.77 13.298 19.537 23.64 34.029 29.909 6.491 2.807 13.933 2.807 20.423 0 3.875-1.676 7.548-3.653 11.009-5.89-9.483-6.13-17.328-14.277-23.021-24.019z" fill="#fcad6d"/><path d="m366.272 427.117c-.149 5.873-4.963 10.607-10.871 10.607h-198.802c-5.908 0-10.722-4.734-10.871-10.607-8.949.167-16.155 7.461-16.155 16.45 0 9.093 7.372 16.465 16.465 16.465h219.924c9.094 0 16.465-7.372 16.465-16.465 0-8.989-7.206-16.283-16.155-16.45z" fill="#d3dcfb"/><g><path d="m197.323 443.567c0-2.061.394-4.025 1.086-5.842h-41.81c-5.908 0-10.722-4.734-10.871-10.607-8.949.167-16.155 7.461-16.155 16.45 0 9.093 7.372 16.465 16.465 16.465h67.75c-9.094-.001-16.465-7.373-16.465-16.466z" fill="#bec8f7"/></g><path d="m355.401 439.252h-198.802c-6.827 0-12.412-5.586-12.412-12.412v-140.205c0-6.827 5.585-12.413 12.412-12.413h198.802c6.827 0 12.413 5.586 12.413 12.413v140.204c-.001 6.827-5.586 12.413-12.413 12.413z" fill="#e9efff"/><g fill="#d3dcfb"><path d="m188.438 426.839v-140.204c0-6.827 5.586-12.413 12.412-12.413h-44.252c-6.827 0-12.412 5.586-12.412 12.413v140.204c0 6.827 5.586 12.412 12.412 12.412h44.252c-6.826.001-12.412-5.585-12.412-12.412z"/><circle cx="256" cy="356.972" r="20.11"/></g></g></svg>